<mxfile host="app.diagrams.net" agent="Mozilla/5.0 (Windows NT 10.0; Win64; x64) AppleWebKit/537.36 (KHTML, like Gecko) Chrome/131.0.0.0 Safari/537.36" version="26.0.9">
  <diagram name="Pagina-1" id="It4VtkPPU6I-Huh3ODEg">
    <mxGraphModel dx="1167" dy="580" grid="1" gridSize="10" guides="1" tooltips="1" connect="1" arrows="1" fold="1" page="1" pageScale="1" pageWidth="827" pageHeight="1169" math="0" shadow="0">
      <root>
        <mxCell id="0" />
        <mxCell id="1" parent="0" />
        <mxCell id="-I0saYJ8R2tmokLF3w9E-4" value="" style="edgeStyle=orthogonalEdgeStyle;rounded=0;orthogonalLoop=1;jettySize=auto;html=1;" parent="1" source="-I0saYJ8R2tmokLF3w9E-1" target="-I0saYJ8R2tmokLF3w9E-3" edge="1">
          <mxGeometry relative="1" as="geometry" />
        </mxCell>
        <mxCell id="-I0saYJ8R2tmokLF3w9E-1" value="START" style="ellipse;whiteSpace=wrap;html=1;" parent="1" vertex="1">
          <mxGeometry x="354" y="20" width="120" height="80" as="geometry" />
        </mxCell>
        <mxCell id="-I0saYJ8R2tmokLF3w9E-6" value="" style="edgeStyle=orthogonalEdgeStyle;rounded=0;orthogonalLoop=1;jettySize=auto;html=1;" parent="1" source="-I0saYJ8R2tmokLF3w9E-3" target="-I0saYJ8R2tmokLF3w9E-5" edge="1">
          <mxGeometry relative="1" as="geometry" />
        </mxCell>
        <mxCell id="-I0saYJ8R2tmokLF3w9E-3" value="READ X" style="shape=parallelogram;perimeter=parallelogramPerimeter;whiteSpace=wrap;html=1;fixedSize=1;" parent="1" vertex="1">
          <mxGeometry x="354" y="190" width="120" height="60" as="geometry" />
        </mxCell>
        <mxCell id="-I0saYJ8R2tmokLF3w9E-11" value="" style="edgeStyle=orthogonalEdgeStyle;rounded=0;orthogonalLoop=1;jettySize=auto;html=1;" parent="1" source="-I0saYJ8R2tmokLF3w9E-5" edge="1">
          <mxGeometry relative="1" as="geometry">
            <mxPoint x="414" y="490" as="targetPoint" />
          </mxGeometry>
        </mxCell>
        <mxCell id="-I0saYJ8R2tmokLF3w9E-12" value="TRUE" style="edgeLabel;html=1;align=center;verticalAlign=middle;resizable=0;points=[];" parent="-I0saYJ8R2tmokLF3w9E-11" vertex="1" connectable="0">
          <mxGeometry x="-0.2178" y="1" relative="1" as="geometry">
            <mxPoint as="offset" />
          </mxGeometry>
        </mxCell>
        <mxCell id="2dLi0BQ099p9rramxpOV-1" style="edgeStyle=orthogonalEdgeStyle;rounded=0;orthogonalLoop=1;jettySize=auto;html=1;exitX=1;exitY=0.5;exitDx=0;exitDy=0;entryX=1;entryY=0.5;entryDx=0;entryDy=0;" edge="1" parent="1" source="-I0saYJ8R2tmokLF3w9E-5" target="-I0saYJ8R2tmokLF3w9E-59">
          <mxGeometry relative="1" as="geometry">
            <Array as="points">
              <mxPoint x="1430" y="360" />
              <mxPoint x="1430" y="1380" />
            </Array>
          </mxGeometry>
        </mxCell>
        <mxCell id="2dLi0BQ099p9rramxpOV-2" value="FALSE" style="edgeLabel;html=1;align=center;verticalAlign=middle;resizable=0;points=[];" vertex="1" connectable="0" parent="2dLi0BQ099p9rramxpOV-1">
          <mxGeometry x="-0.952" y="1" relative="1" as="geometry">
            <mxPoint x="-1" as="offset" />
          </mxGeometry>
        </mxCell>
        <mxCell id="-I0saYJ8R2tmokLF3w9E-5" value="X &amp;gt; 0" style="rhombus;whiteSpace=wrap;html=1;" parent="1" vertex="1">
          <mxGeometry x="374" y="320" width="80" height="80" as="geometry" />
        </mxCell>
        <mxCell id="-I0saYJ8R2tmokLF3w9E-15" value="" style="edgeStyle=orthogonalEdgeStyle;rounded=0;orthogonalLoop=1;jettySize=auto;html=1;" parent="1" source="-I0saYJ8R2tmokLF3w9E-13" target="-I0saYJ8R2tmokLF3w9E-14" edge="1">
          <mxGeometry relative="1" as="geometry" />
        </mxCell>
        <mxCell id="-I0saYJ8R2tmokLF3w9E-13" value="I = 0" style="rounded=0;whiteSpace=wrap;html=1;" parent="1" vertex="1">
          <mxGeometry x="354" y="490" width="120" height="60" as="geometry" />
        </mxCell>
        <mxCell id="-I0saYJ8R2tmokLF3w9E-17" value="" style="edgeStyle=orthogonalEdgeStyle;rounded=0;orthogonalLoop=1;jettySize=auto;html=1;" parent="1" source="-I0saYJ8R2tmokLF3w9E-14" target="-I0saYJ8R2tmokLF3w9E-16" edge="1">
          <mxGeometry relative="1" as="geometry" />
        </mxCell>
        <mxCell id="-I0saYJ8R2tmokLF3w9E-14" value="READ N" style="shape=parallelogram;perimeter=parallelogramPerimeter;whiteSpace=wrap;html=1;fixedSize=1;rounded=0;" parent="1" vertex="1">
          <mxGeometry x="354" y="630" width="120" height="60" as="geometry" />
        </mxCell>
        <mxCell id="-I0saYJ8R2tmokLF3w9E-19" value="" style="edgeStyle=orthogonalEdgeStyle;rounded=0;orthogonalLoop=1;jettySize=auto;html=1;" parent="1" source="-I0saYJ8R2tmokLF3w9E-16" target="-I0saYJ8R2tmokLF3w9E-18" edge="1">
          <mxGeometry relative="1" as="geometry" />
        </mxCell>
        <mxCell id="-I0saYJ8R2tmokLF3w9E-16" value="I +=1" style="whiteSpace=wrap;html=1;rounded=0;" parent="1" vertex="1">
          <mxGeometry x="354" y="770" width="120" height="60" as="geometry" />
        </mxCell>
        <mxCell id="-I0saYJ8R2tmokLF3w9E-20" style="edgeStyle=orthogonalEdgeStyle;rounded=0;orthogonalLoop=1;jettySize=auto;html=1;exitX=1;exitY=0.5;exitDx=0;exitDy=0;entryX=1;entryY=0.5;entryDx=0;entryDy=0;" parent="1" source="-I0saYJ8R2tmokLF3w9E-18" target="-I0saYJ8R2tmokLF3w9E-14" edge="1">
          <mxGeometry relative="1" as="geometry">
            <Array as="points">
              <mxPoint x="590" y="940" />
              <mxPoint x="590" y="660" />
            </Array>
          </mxGeometry>
        </mxCell>
        <mxCell id="-I0saYJ8R2tmokLF3w9E-21" value="FALSE" style="edgeLabel;html=1;align=center;verticalAlign=middle;resizable=0;points=[];" parent="-I0saYJ8R2tmokLF3w9E-20" vertex="1" connectable="0">
          <mxGeometry x="-0.8015" y="2" relative="1" as="geometry">
            <mxPoint as="offset" />
          </mxGeometry>
        </mxCell>
        <mxCell id="-I0saYJ8R2tmokLF3w9E-23" value="" style="edgeStyle=orthogonalEdgeStyle;rounded=0;orthogonalLoop=1;jettySize=auto;html=1;" parent="1" source="-I0saYJ8R2tmokLF3w9E-18" target="-I0saYJ8R2tmokLF3w9E-22" edge="1">
          <mxGeometry relative="1" as="geometry" />
        </mxCell>
        <mxCell id="-I0saYJ8R2tmokLF3w9E-24" value="TRUE" style="edgeLabel;html=1;align=center;verticalAlign=middle;resizable=0;points=[];" parent="-I0saYJ8R2tmokLF3w9E-23" vertex="1" connectable="0">
          <mxGeometry x="-0.235" relative="1" as="geometry">
            <mxPoint as="offset" />
          </mxGeometry>
        </mxCell>
        <mxCell id="-I0saYJ8R2tmokLF3w9E-18" value="I &amp;gt;= 10" style="rhombus;whiteSpace=wrap;html=1;rounded=0;" parent="1" vertex="1">
          <mxGeometry x="374" y="900" width="80" height="80" as="geometry" />
        </mxCell>
        <mxCell id="-I0saYJ8R2tmokLF3w9E-26" value="" style="edgeStyle=orthogonalEdgeStyle;rounded=0;orthogonalLoop=1;jettySize=auto;html=1;" parent="1" source="-I0saYJ8R2tmokLF3w9E-22" edge="1">
          <mxGeometry relative="1" as="geometry">
            <mxPoint x="530" y="1100" as="targetPoint" />
          </mxGeometry>
        </mxCell>
        <mxCell id="-I0saYJ8R2tmokLF3w9E-27" value="TRUE" style="edgeLabel;html=1;align=center;verticalAlign=middle;resizable=0;points=[];" parent="-I0saYJ8R2tmokLF3w9E-26" vertex="1" connectable="0">
          <mxGeometry x="-0.1733" y="1" relative="1" as="geometry">
            <mxPoint as="offset" />
          </mxGeometry>
        </mxCell>
        <mxCell id="-I0saYJ8R2tmokLF3w9E-54" style="edgeStyle=orthogonalEdgeStyle;rounded=0;orthogonalLoop=1;jettySize=auto;html=1;exitX=0.5;exitY=1;exitDx=0;exitDy=0;entryX=0.5;entryY=0;entryDx=0;entryDy=0;" parent="1" source="-I0saYJ8R2tmokLF3w9E-22" target="-I0saYJ8R2tmokLF3w9E-53" edge="1">
          <mxGeometry relative="1" as="geometry" />
        </mxCell>
        <mxCell id="-I0saYJ8R2tmokLF3w9E-55" value="FALSE" style="edgeLabel;html=1;align=center;verticalAlign=middle;resizable=0;points=[];" parent="-I0saYJ8R2tmokLF3w9E-54" vertex="1" connectable="0">
          <mxGeometry x="-0.2267" y="1" relative="1" as="geometry">
            <mxPoint as="offset" />
          </mxGeometry>
        </mxCell>
        <mxCell id="-I0saYJ8R2tmokLF3w9E-22" value="X % 2 == 0" style="rhombus;whiteSpace=wrap;html=1;rounded=0;" parent="1" vertex="1">
          <mxGeometry x="374" y="1060" width="80" height="80" as="geometry" />
        </mxCell>
        <mxCell id="-I0saYJ8R2tmokLF3w9E-30" value="" style="edgeStyle=orthogonalEdgeStyle;rounded=0;orthogonalLoop=1;jettySize=auto;html=1;" parent="1" source="-I0saYJ8R2tmokLF3w9E-28" target="-I0saYJ8R2tmokLF3w9E-29" edge="1">
          <mxGeometry relative="1" as="geometry" />
        </mxCell>
        <mxCell id="-I0saYJ8R2tmokLF3w9E-28" value="N [ B ]&amp;nbsp; &amp;gt; X/2" style="rhombus;whiteSpace=wrap;html=1;" parent="1" vertex="1">
          <mxGeometry x="850" y="1060" width="130" height="80" as="geometry" />
        </mxCell>
        <mxCell id="-I0saYJ8R2tmokLF3w9E-42" value="" style="edgeStyle=orthogonalEdgeStyle;rounded=0;orthogonalLoop=1;jettySize=auto;html=1;" parent="1" source="-I0saYJ8R2tmokLF3w9E-29" target="-I0saYJ8R2tmokLF3w9E-41" edge="1">
          <mxGeometry relative="1" as="geometry" />
        </mxCell>
        <mxCell id="-I0saYJ8R2tmokLF3w9E-29" value="K = N + N [ B ]" style="whiteSpace=wrap;html=1;" parent="1" vertex="1">
          <mxGeometry x="1065" y="1070" width="120" height="60" as="geometry" />
        </mxCell>
        <mxCell id="-I0saYJ8R2tmokLF3w9E-35" style="edgeStyle=orthogonalEdgeStyle;rounded=0;orthogonalLoop=1;jettySize=auto;html=1;exitX=0.5;exitY=1;exitDx=0;exitDy=0;entryX=0.5;entryY=0;entryDx=0;entryDy=0;" parent="1" source="-I0saYJ8R2tmokLF3w9E-31" target="-I0saYJ8R2tmokLF3w9E-34" edge="1">
          <mxGeometry relative="1" as="geometry" />
        </mxCell>
        <mxCell id="-I0saYJ8R2tmokLF3w9E-31" value="N [ I ]&amp;nbsp; &amp;lt; X" style="rhombus;whiteSpace=wrap;html=1;rounded=0;" parent="1" vertex="1">
          <mxGeometry x="374" y="1470" width="80" height="80" as="geometry" />
        </mxCell>
        <mxCell id="-I0saYJ8R2tmokLF3w9E-45" style="edgeStyle=orthogonalEdgeStyle;rounded=0;orthogonalLoop=1;jettySize=auto;html=1;exitX=0.5;exitY=1;exitDx=0;exitDy=0;entryX=0.5;entryY=0;entryDx=0;entryDy=0;" parent="1" source="-I0saYJ8R2tmokLF3w9E-34" target="-I0saYJ8R2tmokLF3w9E-44" edge="1">
          <mxGeometry relative="1" as="geometry" />
        </mxCell>
        <mxCell id="-I0saYJ8R2tmokLF3w9E-34" value="K = N + N [ I ]" style="whiteSpace=wrap;html=1;" parent="1" vertex="1">
          <mxGeometry x="354" y="1650" width="120" height="60" as="geometry" />
        </mxCell>
        <mxCell id="-I0saYJ8R2tmokLF3w9E-43" style="edgeStyle=orthogonalEdgeStyle;rounded=0;orthogonalLoop=1;jettySize=auto;html=1;exitX=0.5;exitY=0;exitDx=0;exitDy=0;entryX=0.5;entryY=0;entryDx=0;entryDy=0;" parent="1" source="-I0saYJ8R2tmokLF3w9E-41" target="-I0saYJ8R2tmokLF3w9E-47" edge="1">
          <mxGeometry relative="1" as="geometry">
            <Array as="points">
              <mxPoint x="1325" y="1010" />
              <mxPoint x="750" y="1010" />
            </Array>
          </mxGeometry>
        </mxCell>
        <mxCell id="-I0saYJ8R2tmokLF3w9E-41" value="B += 1" style="whiteSpace=wrap;html=1;" parent="1" vertex="1">
          <mxGeometry x="1265" y="1070" width="120" height="60" as="geometry" />
        </mxCell>
        <mxCell id="-I0saYJ8R2tmokLF3w9E-46" style="edgeStyle=orthogonalEdgeStyle;rounded=0;orthogonalLoop=1;jettySize=auto;html=1;exitX=0;exitY=0.5;exitDx=0;exitDy=0;entryX=0;entryY=0.5;entryDx=0;entryDy=0;" parent="1" source="-I0saYJ8R2tmokLF3w9E-44" target="-I0saYJ8R2tmokLF3w9E-56" edge="1">
          <mxGeometry relative="1" as="geometry">
            <Array as="points">
              <mxPoint x="290" y="1800" />
              <mxPoint x="290" y="1380" />
            </Array>
          </mxGeometry>
        </mxCell>
        <mxCell id="-I0saYJ8R2tmokLF3w9E-44" value="I += 1" style="whiteSpace=wrap;html=1;" parent="1" vertex="1">
          <mxGeometry x="354" y="1770" width="120" height="60" as="geometry" />
        </mxCell>
        <mxCell id="-I0saYJ8R2tmokLF3w9E-49" style="edgeStyle=orthogonalEdgeStyle;rounded=0;orthogonalLoop=1;jettySize=auto;html=1;exitX=1;exitY=0.5;exitDx=0;exitDy=0;entryX=0;entryY=0.5;entryDx=0;entryDy=0;" parent="1" source="-I0saYJ8R2tmokLF3w9E-47" target="-I0saYJ8R2tmokLF3w9E-28" edge="1">
          <mxGeometry relative="1" as="geometry" />
        </mxCell>
        <mxCell id="-I0saYJ8R2tmokLF3w9E-50" value="FALSE" style="edgeLabel;html=1;align=center;verticalAlign=middle;resizable=0;points=[];" parent="-I0saYJ8R2tmokLF3w9E-49" vertex="1" connectable="0">
          <mxGeometry x="-0.0533" y="1" relative="1" as="geometry">
            <mxPoint as="offset" />
          </mxGeometry>
        </mxCell>
        <mxCell id="-I0saYJ8R2tmokLF3w9E-60" style="edgeStyle=orthogonalEdgeStyle;rounded=0;orthogonalLoop=1;jettySize=auto;html=1;exitX=0.5;exitY=1;exitDx=0;exitDy=0;entryX=0.5;entryY=0;entryDx=0;entryDy=0;" parent="1" source="-I0saYJ8R2tmokLF3w9E-47" target="-I0saYJ8R2tmokLF3w9E-59" edge="1">
          <mxGeometry relative="1" as="geometry" />
        </mxCell>
        <mxCell id="-I0saYJ8R2tmokLF3w9E-47" value="B &amp;gt;= 10" style="rhombus;whiteSpace=wrap;html=1;rounded=0;" parent="1" vertex="1">
          <mxGeometry x="710" y="1060" width="80" height="80" as="geometry" />
        </mxCell>
        <mxCell id="-I0saYJ8R2tmokLF3w9E-52" style="edgeStyle=orthogonalEdgeStyle;rounded=0;orthogonalLoop=1;jettySize=auto;html=1;exitX=1;exitY=0.5;exitDx=0;exitDy=0;entryX=0;entryY=0.5;entryDx=0;entryDy=0;" parent="1" source="-I0saYJ8R2tmokLF3w9E-51" target="-I0saYJ8R2tmokLF3w9E-47" edge="1">
          <mxGeometry relative="1" as="geometry" />
        </mxCell>
        <mxCell id="-I0saYJ8R2tmokLF3w9E-51" value="B = 0" style="rounded=0;whiteSpace=wrap;html=1;" parent="1" vertex="1">
          <mxGeometry x="530" y="1070" width="120" height="60" as="geometry" />
        </mxCell>
        <mxCell id="-I0saYJ8R2tmokLF3w9E-57" style="edgeStyle=orthogonalEdgeStyle;rounded=0;orthogonalLoop=1;jettySize=auto;html=1;exitX=0.5;exitY=1;exitDx=0;exitDy=0;entryX=0.5;entryY=0;entryDx=0;entryDy=0;" parent="1" source="-I0saYJ8R2tmokLF3w9E-53" target="-I0saYJ8R2tmokLF3w9E-56" edge="1">
          <mxGeometry relative="1" as="geometry" />
        </mxCell>
        <mxCell id="-I0saYJ8R2tmokLF3w9E-53" value="B = 0" style="rounded=0;whiteSpace=wrap;html=1;" parent="1" vertex="1">
          <mxGeometry x="354" y="1200" width="120" height="60" as="geometry" />
        </mxCell>
        <mxCell id="-I0saYJ8R2tmokLF3w9E-58" style="edgeStyle=orthogonalEdgeStyle;rounded=0;orthogonalLoop=1;jettySize=auto;html=1;exitX=0.5;exitY=1;exitDx=0;exitDy=0;entryX=0.5;entryY=0;entryDx=0;entryDy=0;" parent="1" source="-I0saYJ8R2tmokLF3w9E-56" target="-I0saYJ8R2tmokLF3w9E-31" edge="1">
          <mxGeometry relative="1" as="geometry" />
        </mxCell>
        <mxCell id="-I0saYJ8R2tmokLF3w9E-61" style="edgeStyle=orthogonalEdgeStyle;rounded=0;orthogonalLoop=1;jettySize=auto;html=1;exitX=1;exitY=0.5;exitDx=0;exitDy=0;entryX=0;entryY=0.5;entryDx=0;entryDy=0;" parent="1" source="-I0saYJ8R2tmokLF3w9E-56" target="-I0saYJ8R2tmokLF3w9E-59" edge="1">
          <mxGeometry relative="1" as="geometry" />
        </mxCell>
        <mxCell id="-I0saYJ8R2tmokLF3w9E-56" value="B &amp;gt;= 10" style="rhombus;whiteSpace=wrap;html=1;rounded=0;" parent="1" vertex="1">
          <mxGeometry x="374" y="1340" width="80" height="80" as="geometry" />
        </mxCell>
        <mxCell id="-I0saYJ8R2tmokLF3w9E-59" value="END" style="ellipse;whiteSpace=wrap;html=1;" parent="1" vertex="1">
          <mxGeometry x="690" y="1340" width="120" height="80" as="geometry" />
        </mxCell>
      </root>
    </mxGraphModel>
  </diagram>
</mxfile>
